#!OML:ASF X:\für Bonn\!DataBase\2005_08_11_Bastian_Final\c3d\Bastian.ASF
:FULLY-SPECIFIED
:DEGREES
214
root 14.6502 17.7522 -3.6277 38.0085 109.924 -676.124
lowerback 5.36519 1.61285 6.8187
upperback 6.35986 2.58955 2.81194
thorax 3.76661 1.64855 -0.930652
lowerneck -5.18589 3.93296 -6.63175
upperneck -0.121254 5.6653 0.345338
head 0.631211 2.84719 1.32655
rclavicle 2.34566e-014 2.94201e-014
rhumerus -42.9476 31.639 -96.9837
rradius 117.515
rwrist 14.5986
rhand -22.8375 21.1169
rfingers 7.12502
rthumb 3.60003 -8.83247
lclavicle 2.34566e-014 2.94201e-014
lhumerus -55.5024 -14.239 79.8722
lradius 87.9431
lwrist 212.939
lhand -27.2069 10.9339
lfingers 7.12502
lthumb -0.619943 40.9128
rfemur 9.336 -11.4248 25.6524
rtibia 51.8102
rfoot 1.82005 4.39179
rtoes -32.0243
lfemur -27.2422 4.24572 -22.7253
ltibia 33.1603
lfoot -15.7837 -11.292
ltoes -23.726
215
root 14.9541 17.7138 -3.65501 36.4827 110.374 -677.732
lowerback 4.95669 1.67067 6.73197
upperback 6.23115 2.62197 2.74505
thorax 3.86068 1.65649 -0.940014
lowerneck -4.91513 3.83008 -6.77098
upperneck -0.103785 5.51081 0.537883
head 0.587975 2.77101 1.40225
rclavicle 7.4743e-014 -7.95139e-016
rhumerus -43.6847 31.0703 -97.2439
rradius 117.336
rwrist 14.6386
rhand -22.832 21.0977
rfingers 7.12502
rthumb 3.60533 -8.8516
lclavicle 7.4743e-014 -7.95139e-016
lhumerus -55.9636 -13.9573 79.7169
lradius 88.6106
lwrist 213.078
lhand -27.1905 11.0682
lfingers 7.12502
lthumb -0.604107 41.0471
rfemur 8.39459 -11.7595 25.2448
rtibia 54.7681
rfoot 2.12785 4.85461
rtoes -31.8012
lfemur -26.1428 4.17135 -23.1366
ltibia 31.237
lfoot -16.3551 -11.1865
ltoes -20.7045
216
root 15.2599 17.6647 -3.68175 35.0066 110.835 -679.236
lowerback 4.57333 1.71843 6.64473
upperback 6.1367 2.64466 2.6552
thorax 3.97763 1.66208 -0.972182
lowerneck -4.66282 3.74591 -6.82116
upperneck -0.137879 5.37737 0.700444
head 0.53424 2.70616 1.45348
rclavicle 5.94366e-014 -3.81667e-014
rhumerus -44.323 30.4284 -97.483
rradius 116.907
rwrist 14.6316
rhand -22.6798 21.0845
rfingers 7.12502
rthumb 3.75231 -8.86225
lclavicle 5.94366e-014 -3.81667e-014
lhumerus -56.419 -13.7423 79.5759
lradius 89.1647
lwrist 213.206
lhand -27.0738 11.5044
lfingers 7.12502
lthumb -0.491325 41.4835
rfemur 7.52407 -12.1056 24.8049
rtibia 57.6657
rfoot 2.39581 5.20401
rtoes -31.4824
lfemur -25.0276 4.38084 -23.6035
ltibia 29.7304
lfoot -16.8751 -11.0485
ltoes -17.7654
217
root 15.5661 17.6061 -3.70841 33.5996 111.316 -680.672
lowerback 4.17198 1.76721 6.53084
upperback 6.05158 2.66753 2.57393
thorax 4.11298 1.66722 -0.979355
lowerneck -4.41799 3.65683 -6.88319
upperneck -0.179126 5.23797 0.901309
head 0.478818 2.63859 1.5196
rclavicle -5.54609e-014 -4.21423e-014
rhumerus -44.9043 29.6645 -97.689
rradius 116.26
rwrist 14.4771
rhand -22.3301 20.9863
rfingers 7.12502
rthumb 4.09004 -8.95422
lclavicle -5.54609e-014 -4.21423e-014
lhumerus -56.917 -13.5552 79.5224
lradius 89.6374
lwrist 213.385
lhand -26.8786 12.2308
lfingers 7.12502
lthumb -0.302806 42.2104
rfemur 6.63851 -12.4278 24.3843
rtibia 60.4809
rfoot 2.64835 5.3513
rtoes -31.2908
lfemur -23.9923 4.72399 -24.0917
ltibia 28.6669
lfoot -17.1926 -10.8245
ltoes -15.5649
218
root 15.8707 17.5374 -3.73327 32.2279 111.821 -682.072
lowerback 3.77656 1.79372 6.36454
upperback 5.98341 2.66183 2.50867
thorax 4.2575 1.65649 -0.940639
lowerneck -4.21139 3.58277 -6.86377
upperneck -0.246806 5.11927 1.01106
head 0.425209 2.58116 1.54364
rclavicle -4.55217e-014 -3.26007e-014
rhumerus -45.3975 28.8781 -97.83
rradius 115.347
rwrist 14.256
rhand -21.8623 20.9229
rfingers 7.12502
rthumb 4.54175 -9.00844
lclavicle -4.55217e-014 -3.26007e-014
lhumerus -57.1562 -13.2448 79.4917
lradius 90.1557
lwrist 213.482
lhand -26.7122 12.7467
lfingers 7.12502
lthumb -0.14214 42.7264
rfemur 5.74461 -12.7503 23.9754
rtibia 63.2033
rfoot 2.99653 5.26107
rtoes -31.3858
lfemur -23.0633 5.07793 -24.5587
ltibia 28.0541
lfoot -17.2502 -10.5756
ltoes -14.5407
219
root 16.1717 17.4488 -3.75967 30.7965 112.332 -683.472
lowerback 3.48191 1.81422 6.22588
upperback 5.9427 2.66019 2.38696
thorax 4.37907 1.65094 -0.97887
lowerneck -4.08535 3.50312 -6.74113
upperneck -0.295142 4.99439 1.14553
head 0.393514 2.5201 1.56035
rclavicle 1.39149e-014 -2.06736e-014
rhumerus -45.7777 27.955 -97.9704
rradius 114.158
rwrist 13.9556
rhand -21.2871 20.8165
rfingers 7.12502
rthumb 5.09718 -9.10221
lclavicle 1.39149e-014 -2.06736e-014
lhumerus -57.0981 -12.9534 79.4344
lradius 90.7109
lwrist 213.577
lhand -26.5686 12.9206
lfingers 7.12502
lthumb -0.00345689 42.9004
rfemur 4.87673 -13.032 23.5284
rtibia 65.8929
rfoot 3.44017 4.97261
rtoes -31.8511
lfemur -22.1705 5.16947 -24.9784
ltibia 27.8664
lfoot -16.8945 -10.2174
ltoes -12.6966
220
root 16.4693 17.3411 -3.78564 29.2829 112.83 -684.895
lowerback 3.28193 1.81991 6.02231
upperback 5.94716 2.64877 2.26603
thorax 4.49054 1.63977 -0.98301
lowerneck -4.04134 3.43002 -6.56702
upperneck -0.359469 4.88391 1.21527
head 0.372854 2.46633 1.54939
rclavicle -3.26007e-014 -1.03368e-014
rhumerus -46.0505 26.9774 -97.9945
rradius 112.702
rwrist 13.5578
rhand -20.6262 20.771
rfingers 7.12502
rthumb 5.73522 -9.13138
lclavicle -3.26007e-014 -1.03368e-014
lhumerus -56.9338 -12.6427 79.4177
lradius 91.2395
lwrist 213.672
lhand -26.4801 13.0836
lfingers 7.12502
lthumb 0.0820859 43.0633
rfemur 4.02657 -13.2469 23.0493
rtibia 68.5966
rfoot 3.92464 4.52582
rtoes -32.3247
lfemur -21.341 4.9678 -25.3459
ltibia 28.104
lfoot -16.209 -9.84263
ltoes -9.43191
221
root 16.7592 17.2224 -3.81076 27.8003 113.342 -686.274
lowerback 3.18954 1.80509 5.79244
upperback 5.94635 2.6207 2.14353
thorax 4.5332 1.61801 -0.979428
lowerneck -4.00248 3.36543 -6.3224
upperneck -0.497618 4.78252 1.27337
head 0.331412 2.41849 1.52145
rclavicle 9.74045e-015 1.03368e-014
rhumerus -46.2791 25.9411 -97.9569
rradius 110.922
rwrist 13.2405
rhand -20.0136 20.8296
rfingers 7.12502
rthumb 6.3267 -9.05591
lclavicle 9.74045e-015 1.03368e-014
lhumerus -56.6997 -12.2396 79.4643
lradius 91.7191
lwrist 213.721
lhand -26.4495 13.053
lfingers 7.12502
lthumb 0.111634 43.0327
rfemur 3.08827 -13.3698 22.602
rtibia 71.3359
rfoot 4.38133 3.98098
rtoes -32.5539
lfemur -20.6947 4.71703 -25.7047
ltibia 28.8051
lfoot -15.3304 -9.43539
ltoes -5.32321
222
root 17.0421 17.0993 -3.83701 26.3291 113.869 -687.674
lowerback 3.13118 1.78292 5.56628
upperback 5.96852 2.58731 1.9728
thorax 4.58325 1.59579 -1.02843
lowerneck -3.99758 3.30193 -5.96028
upperneck -0.739585 4.68148 1.27356
head 0.267161 2.37241 1.45392
rclavicle -1.63003e-014 6.36111e-015
rhumerus -46.4627 24.6916 -97.8891
rradius 108.849
rwrist 13.1777
rhand -19.5082 20.9856
rfingers 7.12502
rthumb 6.81462 -8.88476
lclavicle -1.63003e-014 6.36111e-015
lhumerus -56.312 -11.8629 79.5187
lradius 92.08
lwrist 213.763
lhand -26.5059 12.9371
lfingers 7.12502
lthumb 0.0571248 42.9169
rfemur 2.01933 -13.4512 22.1395
rtibia 74.1128
rfoot 4.80199 3.41975
rtoes -32.3178
lfemur -20.3132 4.60698 -26.1393
ltibia 29.9901
lfoot -14.4129 -9.05452
ltoes -1.34845
223
root 17.3156 16.9763 -3.86365 24.857 114.412 -689.079
lowerback 3.20986 1.72899 5.34005
upperback 5.96478 2.52347 1.76244
thorax 4.52848 1.55679 -1.12544
lowerneck -4.01239 3.25684 -5.54273
upperneck -0.956776 4.60431 1.29792
head 0.213608 2.33724 1.38587
rclavicle 4.85035e-014 4.45278e-014
rhumerus -46.6657 23.2101 -97.8801
rradius 106.624
rwrist 13.3069
rhand -18.9156 21.165
rfingers 7.12502
rthumb 7.38663 -8.68602
lclavicle 4.85035e-014 4.45278e-014
lhumerus -55.9916 -11.3755 79.5647
lradius 92.4606
lwrist 213.744
lhand -26.6764 12.736
lfingers 7.12502
lthumb -0.107522 42.7157
rfemur 0.852947 -13.4891 21.6396
rtibia 76.9009
rfoot 5.15424 2.8938
rtoes -31.3694
lfemur -20.2117 4.70897 -26.6256
ltibia 31.6329
lfoot -13.5122 -8.8494
ltoes 2.9799
224
root 17.5817 16.8572 -3.89338 23.3568 114.939 -690.534
lowerback 3.32994 1.67545 5.13082
upperback 5.99327 2.46494 1.49569
thorax 4.48827 1.5243 -1.29024
lowerneck -4.04332 3.20801 -5.17827
upperneck -1.28857 4.52757 1.40958
head 0.12406 2.30487 1.35372
rclavicle -3.20043e-014 -2.38542e-014
rhumerus -46.8316 21.7076 -97.7762
rradius 104.326
rwrist 13.6868
rhand -18.4608 21.1132
rfingers 7.12502
rthumb 7.82556 -8.72202
lclavicle -3.20043e-014 -2.38542e-014
lhumerus -55.6429 -10.785 79.5568
lradius 92.8681
lwrist 213.69
lhand -27.0586 12.4959
lfingers 7.12502
lthumb -0.476644 42.4751
rfemur -0.399503 -13.4927 21.0491
rtibia 79.6724
rfoot 5.31531 2.47719
rtoes -30.0647
lfemur -20.3706 4.79266 -27.1486
ltibia 33.667
lfoot -12.6921 -8.815
ltoes 7.95426
225
root 17.8395 16.7354 -3.92355 21.7262 115.477 -692.122
lowerback 3.54674 1.59048 4.87427
upperback 6.0251 2.37185 1.19242
thorax 4.39395 1.47318 -1.47011
lowerneck -4.14787 3.15393 -4.7974
upperneck -1.57133 4.449 1.49853
head 0.0629598 2.27035 1.31406
rclavicle -4.01545e-014 -3.4191e-014
rhumerus -47.0174 20.3144 -97.6153
rradius 101.791
rwrist 14.2016
rhand -18.3196 20.92
rfingers 7.12502
rthumb 7.96191 -8.91006
lclavicle -4.01545e-014 -3.4191e-014
lhumerus -55.1953 -10.1008 79.5984
lradius 93.1305
lwrist 213.517
lhand -27.5105 12.2397
lfingers 7.12502
lthumb -0.913191 42.2175
rfemur -1.7197 -13.515 20.3464
rtibia 82.4401
rfoot 5.12607 2.17266
rtoes -29.1576
lfemur -20.6772 4.73258 -27.716
ltibia 35.983
lfoot -12.0014 -8.95124
ltoes 13.2656
